<mxfile host="app.diagrams.net" modified="2024-02-04T23:34:40.141Z" agent="Mozilla/5.0 (Windows NT 10.0; Win64; x64; rv:122.0) Gecko/20100101 Firefox/122.0" etag="xSvGjao7xpxKAnr0c5OC" version="23.1.1" type="device">
  <diagram name="Page-1" id="yus4EkuF3SX9LHVjRKaO">
    <mxGraphModel dx="574" dy="313" grid="1" gridSize="10" guides="1" tooltips="1" connect="1" arrows="1" fold="1" page="1" pageScale="1" pageWidth="850" pageHeight="1100" math="0" shadow="0">
      <root>
        <mxCell id="0" />
        <mxCell id="1" parent="0" />
        <mxCell id="lQu0Dfg3L-j6P4--BXz0-1" value="" style="rounded=1;whiteSpace=wrap;html=1;" vertex="1" parent="1">
          <mxGeometry x="100" y="324.25" width="155" height="145.75" as="geometry" />
        </mxCell>
        <mxCell id="lQu0Dfg3L-j6P4--BXz0-2" value="&lt;font style=&quot;font-size: 11px;&quot;&gt;Dostępne akcje:&lt;/font&gt;" style="text;html=1;strokeColor=none;fillColor=none;align=center;verticalAlign=middle;whiteSpace=wrap;rounded=0;" vertex="1" parent="1">
          <mxGeometry x="100" y="320.75" width="80" height="30" as="geometry" />
        </mxCell>
        <mxCell id="lQu0Dfg3L-j6P4--BXz0-3" value="" style="shape=flexArrow;endArrow=classic;html=1;rounded=0;strokeColor=none;fillColor=#FF1F1F;width=8.61111111111111;endSize=3.5388888888888888;endWidth=9.552469135802468;strokeWidth=1;" edge="1" parent="1">
          <mxGeometry width="50" height="50" relative="1" as="geometry">
            <mxPoint x="147" y="355.75" as="sourcePoint" />
            <mxPoint x="173" y="370.75" as="targetPoint" />
          </mxGeometry>
        </mxCell>
        <mxCell id="lQu0Dfg3L-j6P4--BXz0-4" value="" style="shape=flexArrow;endArrow=classic;html=1;rounded=0;strokeColor=none;fillColor=#FF1F1F;width=8.61111111111111;endSize=3.5388888888888888;endWidth=9.552469135802468;strokeWidth=1;entryX=0.5;entryY=1;entryDx=0;entryDy=0;exitX=0.5;exitY=0;exitDx=0;exitDy=0;" edge="1" parent="1">
          <mxGeometry width="50" height="50" relative="1" as="geometry">
            <mxPoint x="161.43000000000006" y="418.13" as="sourcePoint" />
            <mxPoint x="161.43000000000006" y="386.13" as="targetPoint" />
          </mxGeometry>
        </mxCell>
        <mxCell id="lQu0Dfg3L-j6P4--BXz0-5" value="" style="shape=flexArrow;endArrow=classic;html=1;rounded=0;strokeColor=none;fillColor=#FF1F1F;width=8.61111111111111;endSize=3.5388888888888888;endWidth=9.552469135802468;strokeWidth=1;exitX=0;exitY=0;exitDx=0;exitDy=0;" edge="1" parent="1">
          <mxGeometry width="50" height="50" relative="1" as="geometry">
            <mxPoint x="168.5" y="448.5" as="sourcePoint" />
            <mxPoint x="139.5" y="435.5" as="targetPoint" />
          </mxGeometry>
        </mxCell>
        <mxCell id="lQu0Dfg3L-j6P4--BXz0-6" value="" style="shape=flexArrow;endArrow=classic;html=1;rounded=0;strokeColor=none;fillColor=#FF1F1F;width=8.61111111111111;endSize=3.5388888888888888;endWidth=9.552469135802468;strokeWidth=1;" edge="1" parent="1">
          <mxGeometry width="50" height="50" relative="1" as="geometry">
            <mxPoint x="247" y="355.75" as="sourcePoint" />
            <mxPoint x="221" y="370.75" as="targetPoint" />
          </mxGeometry>
        </mxCell>
        <mxCell id="lQu0Dfg3L-j6P4--BXz0-7" value="" style="shape=flexArrow;endArrow=classic;html=1;rounded=0;strokeColor=none;fillColor=#FF1F1F;width=8.61111111111111;endSize=3.5388888888888888;endWidth=9.552469135802468;strokeWidth=1;entryX=0.5;entryY=1;entryDx=0;entryDy=0;exitX=0.5;exitY=0;exitDx=0;exitDy=0;" edge="1" parent="1">
          <mxGeometry width="50" height="50" relative="1" as="geometry">
            <mxPoint x="230.71000000000004" y="386.13" as="sourcePoint" />
            <mxPoint x="230.71000000000004" y="418.13" as="targetPoint" />
          </mxGeometry>
        </mxCell>
        <mxCell id="lQu0Dfg3L-j6P4--BXz0-8" value="" style="shape=flexArrow;endArrow=classic;html=1;rounded=0;strokeColor=none;fillColor=#FF1F1F;width=8.61111111111111;endSize=3.5388888888888888;endWidth=9.552469135802468;strokeWidth=1;exitX=0;exitY=0;exitDx=0;exitDy=0;" edge="1" parent="1">
          <mxGeometry width="50" height="50" relative="1" as="geometry">
            <mxPoint x="217.5" y="448.5" as="sourcePoint" />
            <mxPoint x="246.5" y="435.5" as="targetPoint" />
          </mxGeometry>
        </mxCell>
        <mxCell id="lQu0Dfg3L-j6P4--BXz0-9" value="" style="rounded=1;whiteSpace=wrap;html=1;" vertex="1" parent="1">
          <mxGeometry x="260" y="320" width="440" height="270" as="geometry" />
        </mxCell>
        <mxCell id="lQu0Dfg3L-j6P4--BXz0-10" value="Algorytm lokacji" style="text;html=1;strokeColor=none;fillColor=none;align=center;verticalAlign=middle;whiteSpace=wrap;rounded=0;" vertex="1" parent="1">
          <mxGeometry x="260" y="320" width="310" height="30" as="geometry" />
        </mxCell>
        <mxCell id="lQu0Dfg3L-j6P4--BXz0-11" value="n --&amp;gt; liczba pól" style="text;html=1;strokeColor=none;fillColor=none;align=left;verticalAlign=middle;whiteSpace=wrap;rounded=0;" vertex="1" parent="1">
          <mxGeometry x="270" y="340" width="120" height="30" as="geometry" />
        </mxCell>
        <mxCell id="lQu0Dfg3L-j6P4--BXz0-13" value="RD = " style="text;html=1;strokeColor=none;fillColor=none;align=center;verticalAlign=middle;whiteSpace=wrap;rounded=0;" vertex="1" parent="1">
          <mxGeometry x="100" y="350" width="45" height="20" as="geometry" />
        </mxCell>
        <mxCell id="lQu0Dfg3L-j6P4--BXz0-14" value="UU = " style="text;html=1;strokeColor=none;fillColor=none;align=center;verticalAlign=middle;whiteSpace=wrap;rounded=0;" vertex="1" parent="1">
          <mxGeometry x="100" y="390" width="45" height="20" as="geometry" />
        </mxCell>
        <mxCell id="lQu0Dfg3L-j6P4--BXz0-15" value="LU = " style="text;html=1;strokeColor=none;fillColor=none;align=center;verticalAlign=middle;whiteSpace=wrap;rounded=0;" vertex="1" parent="1">
          <mxGeometry x="100" y="430" width="45" height="20" as="geometry" />
        </mxCell>
        <mxCell id="lQu0Dfg3L-j6P4--BXz0-16" value="LD = " style="text;html=1;strokeColor=none;fillColor=none;align=center;verticalAlign=middle;whiteSpace=wrap;rounded=0;" vertex="1" parent="1">
          <mxGeometry x="180" y="350.75" width="45" height="20" as="geometry" />
        </mxCell>
        <mxCell id="lQu0Dfg3L-j6P4--BXz0-17" value="DD = " style="text;html=1;strokeColor=none;fillColor=none;align=center;verticalAlign=middle;whiteSpace=wrap;rounded=0;" vertex="1" parent="1">
          <mxGeometry x="180" y="390" width="45" height="20" as="geometry" />
        </mxCell>
        <mxCell id="lQu0Dfg3L-j6P4--BXz0-18" value="RU = " style="text;html=1;strokeColor=none;fillColor=none;align=center;verticalAlign=middle;whiteSpace=wrap;rounded=0;" vertex="1" parent="1">
          <mxGeometry x="175" y="430" width="45" height="20" as="geometry" />
        </mxCell>
        <mxCell id="lQu0Dfg3L-j6P4--BXz0-19" value="n // 6 = l&lt;sub&gt;o&lt;/sub&gt; --&amp;gt; liczba okręgów" style="text;html=1;strokeColor=none;fillColor=none;align=left;verticalAlign=middle;whiteSpace=wrap;rounded=0;" vertex="1" parent="1">
          <mxGeometry x="270" y="360" width="170" height="30" as="geometry" />
        </mxCell>
        <mxCell id="lQu0Dfg3L-j6P4--BXz0-20" value="&lt;div&gt;lista_pomocnicza = [&lt;span style=&quot;&quot;&gt; &lt;/span&gt;1, ...,&amp;nbsp;l&lt;sub&gt;o&lt;/sub&gt; - 3,&amp;nbsp;l&lt;sub&gt;o&lt;/sub&gt; - 2,&amp;nbsp;l&lt;sub&gt;o&lt;/sub&gt; - 1,&amp;nbsp;l&lt;sub&gt;o &lt;/sub&gt;]&lt;/div&gt;" style="text;html=1;strokeColor=none;fillColor=none;align=left;verticalAlign=middle;whiteSpace=wrap;rounded=0;" vertex="1" parent="1">
          <mxGeometry x="270" y="380" width="280" height="30" as="geometry" />
        </mxCell>
        <mxCell id="lQu0Dfg3L-j6P4--BXz0-21" value="lista_mozliwych_akcji = [UU, LU, LD, DD, RU]" style="text;html=1;strokeColor=none;fillColor=none;align=left;verticalAlign=middle;whiteSpace=wrap;rounded=0;" vertex="1" parent="1">
          <mxGeometry x="270" y="400" width="290" height="30" as="geometry" />
        </mxCell>
        <mxCell id="lQu0Dfg3L-j6P4--BXz0-22" value="&lt;div&gt;for i in lista_pomocnicza:&lt;/div&gt;&lt;div&gt;&lt;span style=&quot;&quot;&gt;&lt;span style=&quot;&quot;&gt;&amp;nbsp;&amp;nbsp;&amp;nbsp;&amp;nbsp;&lt;/span&gt;&lt;/span&gt;lista_akcji.append(akcja_start) --&amp;gt; rozpocznij nowy okrąg&lt;br&gt;&lt;/div&gt;&lt;div&gt;&lt;span style=&quot;&quot;&gt;&lt;span style=&quot;&quot;&gt;&amp;nbsp;&amp;nbsp;&amp;nbsp;&amp;nbsp;&lt;/span&gt;lista_akcji.append(&lt;/span&gt;...[UU*i, LU*i, LD*i, DD*i, RU*i]) --&amp;gt; idź wzdłóż okręgu&lt;br&gt;&lt;/div&gt;&lt;div&gt;&amp;nbsp;&amp;nbsp;&amp;nbsp; lista_akcji.append(akcja_start*(i-1)) --&amp;gt; dopełnij okrąg (jeśli potrzeba)&lt;br&gt;&lt;/div&gt;" style="text;html=1;strokeColor=none;fillColor=none;align=left;verticalAlign=top;whiteSpace=wrap;rounded=0;" vertex="1" parent="1">
          <mxGeometry x="270" y="460" width="430" height="120" as="geometry" />
        </mxCell>
        <mxCell id="lQu0Dfg3L-j6P4--BXz0-24" value="lista_akcji = []" style="text;html=1;strokeColor=none;fillColor=none;align=left;verticalAlign=middle;whiteSpace=wrap;rounded=0;" vertex="1" parent="1">
          <mxGeometry x="270" y="440" width="290" height="30" as="geometry" />
        </mxCell>
        <mxCell id="lQu0Dfg3L-j6P4--BXz0-25" value="akcja_start = RD" style="text;html=1;strokeColor=none;fillColor=none;align=left;verticalAlign=middle;whiteSpace=wrap;rounded=0;" vertex="1" parent="1">
          <mxGeometry x="270" y="420" width="290" height="30" as="geometry" />
        </mxCell>
      </root>
    </mxGraphModel>
  </diagram>
</mxfile>
